<svg width="710" height="468" viewBox="0 0 710 468" fill="none" xmlns="http://www.w3.org/2000/svg">
<path d="M425.064 74.5111C581.715 21.6483 636.776 87.3029 640.218 187.278C642.647 257.838 716.549 293.824 663.826 344.838C583.823 422.246 496.851 266.549 364.199 347.484C222.258 434.085 52.0869 415.542 23.667 360.141C-33.5715 267.03 97.8081 245.134 71.0197 175.758C10.8341 19.8902 157.44 10.5367 214.023 50.3648C262.019 84.1482 327.524 107.426 425.064 74.5111Z" fill="url(#paint0_linear)" fill-opacity="0.29"/>
<g filter="url(#filter0_d)">
<path fill-rule="evenodd" clip-rule="evenodd" d="M106.052 236.688C104.242 233.104 99.1241 233.104 97.3142 236.688C95.824 239.64 91.8969 240.295 89.5292 237.987C86.6535 235.185 81.8126 236.847 81.2646 240.825C80.8134 244.1 77.3119 245.995 74.3232 244.581C70.6933 242.864 66.6543 246.008 67.4276 249.948C68.0644 253.192 65.3678 256.122 62.0821 255.755C58.0914 255.31 55.2919 259.595 57.3028 263.07C58.9585 265.932 57.3591 269.578 54.1323 270.298C50.2133 271.173 48.9568 276.134 51.9873 278.769C54.4824 280.938 54.1536 284.906 51.3355 286.635C47.9128 288.734 48.3354 293.835 52.0571 295.343C55.1213 296.584 56.0987 300.444 53.9946 302.994C51.4391 306.091 53.4951 310.778 57.5047 310.996C60.806 311.175 62.9836 314.508 61.8216 317.603C60.4102 321.363 63.8767 325.128 67.7397 324.032C70.9203 323.13 74.0622 325.575 73.9681 328.88C73.8539 332.894 78.3552 335.33 81.653 333.039C84.3682 331.153 88.1339 332.445 89.118 335.602C90.3133 339.435 95.3617 340.278 97.7369 337.04C99.6926 334.374 103.674 334.374 105.63 337.04C108.005 340.278 113.053 339.435 114.248 335.602C115.233 332.445 118.998 331.153 121.714 333.039C125.011 335.33 129.513 332.894 129.398 328.88C129.304 325.575 132.446 323.13 135.627 324.032C139.49 325.128 142.956 321.363 141.545 317.603C140.383 314.508 142.561 311.175 145.862 310.996C149.871 310.778 151.927 306.091 149.372 302.994C147.268 300.444 148.245 296.584 151.309 295.343C155.031 293.835 155.454 288.734 152.031 286.635C149.213 284.906 148.884 280.938 151.379 278.769C154.41 276.134 153.153 271.173 149.234 270.298C146.007 269.578 144.408 265.932 146.064 263.07C148.075 259.595 145.275 255.31 141.284 255.755C137.999 256.122 135.302 253.192 135.939 249.948C136.712 246.008 132.673 242.864 129.043 244.581C126.055 245.995 122.553 244.1 122.102 240.825C121.554 236.847 116.713 235.185 113.837 237.987C111.47 240.295 107.542 239.64 106.052 236.688ZM101.425 308.514C113.534 308.514 123.35 298.698 123.35 286.589C123.35 274.48 113.534 264.664 101.425 264.664C89.3164 264.664 79.5002 274.48 79.5002 286.589C79.5002 298.698 89.3164 308.514 101.425 308.514Z" fill="url(#paint1_linear)"/>
</g>
<g filter="url(#filter1_d)">
<path fill-rule="evenodd" clip-rule="evenodd" d="M369.052 121.688C367.242 118.104 362.124 118.104 360.314 121.688C358.824 124.64 354.897 125.295 352.529 122.987C349.653 120.185 344.813 121.847 344.265 125.825C343.813 129.1 340.312 130.995 337.323 129.581C333.693 127.864 329.654 131.008 330.428 134.948C331.064 138.192 328.368 141.122 325.082 140.755C321.091 140.31 318.292 144.595 320.303 148.07C321.958 150.932 320.359 154.578 317.132 155.298C313.213 156.173 311.957 161.134 314.987 163.769C317.482 165.938 317.154 169.906 314.336 171.635C310.913 173.734 311.335 178.835 315.057 180.343C318.121 181.584 319.099 185.444 316.995 187.994C314.439 191.091 316.495 195.778 320.505 195.996C323.806 196.175 325.984 199.508 324.822 202.603C323.41 206.363 326.877 210.128 330.74 209.032C333.92 208.13 337.062 210.575 336.968 213.88C336.854 217.894 341.355 220.33 344.653 218.039C347.368 216.153 351.134 217.445 352.118 220.602C353.313 224.435 358.362 225.278 360.737 222.04C362.693 219.374 366.674 219.374 368.63 222.04C371.005 225.278 376.053 224.435 377.248 220.602C378.233 217.445 381.998 216.153 384.714 218.039C388.011 220.33 392.513 217.894 392.398 213.88C392.304 210.575 395.446 208.13 398.627 209.032C402.49 210.128 405.956 206.363 404.545 202.603C403.383 199.508 405.561 196.175 408.862 195.996C412.871 195.778 414.927 191.091 412.372 187.994C410.268 185.444 411.245 181.584 414.309 180.343C418.031 178.835 418.454 173.734 415.031 171.635C412.213 169.906 411.884 165.938 414.379 163.769C417.41 161.134 416.153 156.173 412.234 155.298C409.007 154.578 407.408 150.932 409.064 148.07C411.075 144.595 408.275 140.31 404.284 140.755C400.999 141.122 398.302 138.192 398.939 134.948C399.712 131.008 395.673 127.864 392.043 129.581C389.055 130.995 385.553 129.1 385.102 125.825C384.554 121.847 379.713 120.185 376.837 122.987C374.47 125.295 370.542 124.64 369.052 121.688ZM364.425 193.514C376.534 193.514 386.35 183.698 386.35 171.589C386.35 159.48 376.534 149.664 364.425 149.664C352.316 149.664 342.5 159.48 342.5 171.589C342.5 183.698 352.316 193.514 364.425 193.514Z" fill="url(#paint2_linear)"/>
</g>
<g filter="url(#filter2_d)">
<path fill-rule="evenodd" clip-rule="evenodd" d="M206.187 82.8449C208.776 77.7184 216.096 77.7184 218.684 82.8449L221.716 88.8487C223.847 93.0696 229.464 94.0068 232.85 90.7066L237.667 86.0125C241.78 82.0042 248.703 84.3811 249.487 90.0703L250.405 96.7331C251.05 101.417 256.058 104.128 260.332 102.106L266.412 99.2298C271.604 96.7742 277.38 101.27 276.274 106.906L274.979 113.506C274.068 118.146 277.925 122.335 282.624 121.811L289.308 121.065C295.016 120.428 299.02 126.556 296.144 131.527L292.776 137.349C290.408 141.441 292.695 146.656 297.31 147.686L303.874 149.151C309.479 150.402 311.276 157.498 306.942 161.266L301.866 165.678C298.298 168.78 298.768 174.455 302.799 176.928L308.531 180.445C313.427 183.448 312.822 190.743 307.499 192.899L301.266 195.425C296.883 197.2 295.485 202.72 298.495 206.367L302.775 211.555C306.43 215.985 303.49 222.689 297.755 223L291.039 223.364C286.318 223.621 283.203 228.388 284.865 232.814L287.229 239.111C289.248 244.487 284.29 249.873 278.765 248.305L272.295 246.47C267.746 245.179 263.252 248.676 263.387 253.403L263.578 260.126C263.742 265.867 257.304 269.351 252.587 266.074L247.064 262.237C243.18 259.539 237.794 261.388 236.387 265.902L234.385 272.323C232.676 277.805 225.455 279.01 222.058 274.38L218.08 268.957C215.283 265.144 209.589 265.144 206.792 268.957L202.813 274.38C199.416 279.01 192.196 277.805 190.487 272.323L188.485 265.902C187.077 261.388 181.692 259.539 177.808 262.237L172.285 266.074C167.568 269.351 161.13 265.866 161.294 260.126L161.485 253.403C161.62 248.676 157.126 245.179 152.577 246.47L146.107 248.305C140.582 249.873 135.624 244.487 137.643 239.111L140.007 232.814C141.669 228.388 138.554 223.621 133.833 223.364L127.117 223C121.382 222.689 118.442 215.985 122.097 211.555L126.377 206.367C129.386 202.72 127.988 197.2 123.606 195.425L117.372 192.899C112.05 190.743 111.445 183.448 116.34 180.445L122.073 176.928C126.104 174.455 126.574 168.78 123.005 165.678L117.93 161.266C113.595 157.498 115.392 150.402 120.997 149.151L127.562 147.686C132.177 146.656 134.464 141.441 132.096 137.349L128.728 131.527C125.852 126.556 129.856 120.428 135.563 121.065L142.247 121.811C146.947 122.335 150.803 118.146 149.893 113.506L148.597 106.906C147.491 101.27 153.268 96.7742 158.46 99.2298L164.539 102.106C168.814 104.128 173.822 101.417 174.467 96.7331L175.385 90.0703C176.169 84.3811 183.092 82.0042 187.205 86.0125L192.022 90.7066C195.408 94.0068 201.024 93.0696 203.156 88.8487L206.187 82.8449ZM252.329 178.277C252.329 200.572 234.256 218.646 211.961 218.646C189.666 218.646 171.593 200.572 171.593 178.277C171.593 155.982 189.666 137.909 211.961 137.909C234.256 137.909 252.329 155.982 252.329 178.277ZM284 178C284 217.765 251.765 250 212 250C172.236 250 140 217.765 140 178C140 138.236 172.236 106 212 106C251.765 106 284 138.236 284 178ZM287 178C287 219.421 253.421 253 212 253C170.579 253 137 219.421 137 178C137 136.579 170.579 103 212 103C253.421 103 287 136.579 287 178Z" fill="url(#paint3_linear)"/>
</g>
<g filter="url(#filter3_d)">
<path fill-rule="evenodd" clip-rule="evenodd" d="M469.745 175.845C472.334 170.718 479.654 170.718 482.243 175.845L484.463 180.243C486.595 184.464 492.211 185.401 495.598 182.101L499.126 178.662C503.239 174.654 510.162 177.031 510.946 182.72L511.619 187.601C512.264 192.285 517.272 194.995 521.546 192.974L526 190.867C531.192 188.411 536.968 192.907 535.862 198.543L534.913 203.378C534.003 208.018 537.859 212.207 542.559 211.683L547.455 211.136C553.163 210.499 557.166 216.627 554.29 221.598L551.823 225.863C549.455 229.956 551.743 235.171 556.358 236.201L561.166 237.274C566.771 238.524 568.568 245.621 564.234 249.388L560.516 252.621C556.947 255.723 557.417 261.398 561.448 263.871L565.648 266.447C570.543 269.45 569.938 276.745 564.616 278.902L560.049 280.751C555.667 282.527 554.269 288.047 557.278 291.694L560.414 295.495C564.069 299.924 561.128 306.628 555.394 306.939L550.474 307.206C545.752 307.463 542.638 312.23 544.3 316.656L546.032 321.269C548.05 326.646 543.092 332.031 537.567 330.464L532.827 329.119C528.279 327.828 523.785 331.325 523.92 336.052L524.06 340.977C524.223 346.718 517.785 350.202 513.069 346.925L509.022 344.114C505.139 341.416 499.753 343.265 498.346 347.779L496.879 352.483C495.17 357.966 487.949 359.17 484.552 354.54L481.638 350.567C478.841 346.755 473.147 346.755 470.35 350.567L467.436 354.54C464.038 359.17 456.818 357.966 455.109 352.483L453.642 347.779C452.235 343.265 446.849 341.416 442.966 344.114L438.919 346.925C434.203 350.202 427.765 346.718 427.928 340.977L428.068 336.052C428.203 331.325 423.709 327.828 419.16 329.119L414.421 330.464C408.896 332.031 403.938 326.646 405.956 321.269L407.688 316.656C409.35 312.23 406.236 307.463 401.514 307.206L396.594 306.939C390.86 306.628 387.919 299.924 391.574 295.495L394.71 291.694C397.719 288.047 396.321 282.527 391.939 280.751L387.372 278.902C382.05 276.745 381.445 269.45 386.34 266.447L390.54 263.871C394.571 261.398 395.041 255.723 391.472 252.621L387.754 249.388C383.42 245.621 385.217 238.524 390.822 237.274L395.63 236.201C400.245 235.171 402.533 229.956 400.165 225.863L397.697 221.598C394.821 216.627 398.825 210.499 404.533 211.136L409.429 211.683C414.129 212.207 417.985 208.018 417.075 203.378L416.126 198.543C415.02 192.907 420.796 188.411 425.988 190.867L430.442 192.974C434.716 194.995 439.724 192.285 440.369 187.601L441.042 182.72C441.825 177.031 448.749 174.654 452.862 178.662L456.39 182.101C459.777 185.401 465.393 184.464 467.525 180.243L469.745 175.845ZM513.506 264.842C513.506 285.805 496.512 302.8 475.548 302.8C454.584 302.8 437.589 285.805 437.589 264.842C437.589 243.878 454.584 226.883 475.548 226.883C496.512 226.883 513.506 243.878 513.506 264.842ZM543.107 264.581C543.107 301.873 512.876 332.104 475.584 332.104C438.292 332.104 408.061 301.873 408.061 264.581C408.061 227.289 438.292 197.058 475.584 197.058C512.876 197.058 543.107 227.289 543.107 264.581ZM546.107 264.581C546.107 303.53 514.533 335.104 475.584 335.104C436.636 335.104 405.061 303.53 405.061 264.581C405.061 225.632 436.636 194.058 475.584 194.058C514.533 194.058 546.107 225.632 546.107 264.581Z" fill="url(#paint4_linear)"/>
</g>
<g filter="url(#filter4_d)">
<path fill-rule="evenodd" clip-rule="evenodd" d="M590.784 150.016C589.427 147.328 585.589 147.328 584.231 150.016C583.114 152.229 580.169 152.721 578.393 150.99C576.237 148.889 572.607 150.135 572.196 153.118C571.857 155.574 569.231 156.995 566.99 155.935C564.268 154.647 561.239 157.005 561.819 159.96C562.297 162.393 560.274 164.589 557.81 164.314C554.818 163.98 552.718 167.194 554.226 169.8C555.468 171.946 554.269 174.68 551.849 175.22C548.91 175.876 547.968 179.597 550.24 181.573C552.111 183.199 551.865 186.175 549.751 187.471C547.185 189.046 547.502 192.871 550.293 194.002C552.59 194.933 553.323 197.827 551.746 199.739C549.829 202.062 551.371 205.577 554.378 205.74C556.853 205.875 558.486 208.374 557.615 210.695C556.557 213.514 559.156 216.338 562.053 215.516C564.438 214.84 566.794 216.673 566.724 219.152C566.638 222.162 570.014 223.989 572.487 222.271C574.523 220.856 577.347 221.825 578.085 224.192C578.981 227.067 582.767 227.699 584.548 225.271C586.015 223.272 589.001 223.272 590.467 225.271C592.248 227.699 596.034 227.067 596.931 224.192C597.669 221.825 600.493 220.856 602.529 222.271C605.002 223.989 608.378 222.162 608.292 219.152C608.221 216.673 610.577 214.84 612.963 215.516C615.86 216.338 618.459 213.514 617.401 210.695C616.529 208.374 618.162 205.875 620.638 205.74C623.645 205.577 625.187 202.062 623.27 199.739C621.692 197.827 622.425 194.933 624.723 194.002C627.514 192.871 627.831 189.046 625.264 187.471C623.151 186.175 622.904 183.199 624.776 181.573C627.048 179.597 626.106 175.876 623.167 175.22C620.747 174.68 619.548 171.946 620.789 169.8C622.297 167.194 620.198 163.98 617.205 164.314C614.741 164.589 612.719 162.393 613.197 159.96C613.777 157.005 610.748 154.647 608.026 155.935C605.784 156.995 603.158 155.574 602.82 153.118C602.409 150.135 598.779 148.889 596.622 150.99C594.847 152.721 591.902 152.229 590.784 150.016ZM587.315 203.879C596.395 203.879 603.757 196.518 603.757 187.437C603.757 178.356 596.395 170.995 587.315 170.995C578.234 170.995 570.873 178.356 570.873 187.437C570.873 196.518 578.234 203.879 587.315 203.879Z" fill="url(#paint5_linear)"/>
</g>
<defs>
<filter id="filter0_d" x="24" y="213" width="155.367" height="155.041" filterUnits="userSpaceOnUse" color-interpolation-filters="sRGB">
<feFlood flood-opacity="0" result="BackgroundImageFix"/>
<feColorMatrix in="SourceAlpha" type="matrix" values="0 0 0 0 0 0 0 0 0 0 0 0 0 0 0 0 0 0 127 0"/>
<feOffset dy="4"/>
<feGaussianBlur stdDeviation="12.5"/>
<feColorMatrix type="matrix" values="0 0 0 0 0 0 0 0 0 0 0 0 0 0 0 0 0 0 0.25 0"/>
<feBlend mode="normal" in2="BackgroundImageFix" result="effect1_dropShadow"/>
<feBlend mode="normal" in="SourceGraphic" in2="effect1_dropShadow" result="shape"/>
</filter>
<filter id="filter1_d" x="287" y="98" width="155.367" height="155.041" filterUnits="userSpaceOnUse" color-interpolation-filters="sRGB">
<feFlood flood-opacity="0" result="BackgroundImageFix"/>
<feColorMatrix in="SourceAlpha" type="matrix" values="0 0 0 0 0 0 0 0 0 0 0 0 0 0 0 0 0 0 127 0"/>
<feOffset dy="4"/>
<feGaussianBlur stdDeviation="12.5"/>
<feColorMatrix type="matrix" values="0 0 0 0 0 0 0 0 0 0 0 0 0 0 0 0 0 0 0.25 0"/>
<feBlend mode="normal" in2="BackgroundImageFix" result="effect1_dropShadow"/>
<feBlend mode="normal" in="SourceGraphic" in2="effect1_dropShadow" result="shape"/>
</filter>
<filter id="filter2_d" x="88" y="58" width="248.872" height="248.241" filterUnits="userSpaceOnUse" color-interpolation-filters="sRGB">
<feFlood flood-opacity="0" result="BackgroundImageFix"/>
<feColorMatrix in="SourceAlpha" type="matrix" values="0 0 0 0 0 0 0 0 0 0 0 0 0 0 0 0 0 0 127 0"/>
<feOffset dy="4"/>
<feGaussianBlur stdDeviation="12.5"/>
<feColorMatrix type="matrix" values="0 0 0 0 0 0 0 0 0 0 0 0 0 0 0 0 0 0 0.25 0"/>
<feBlend mode="normal" in2="BackgroundImageFix" result="effect1_dropShadow"/>
<feBlend mode="normal" in="SourceGraphic" in2="effect1_dropShadow" result="shape"/>
</filter>
<filter id="filter3_d" x="358" y="151" width="235.988" height="235.402" filterUnits="userSpaceOnUse" color-interpolation-filters="sRGB">
<feFlood flood-opacity="0" result="BackgroundImageFix"/>
<feColorMatrix in="SourceAlpha" type="matrix" values="0 0 0 0 0 0 0 0 0 0 0 0 0 0 0 0 0 0 127 0"/>
<feOffset dy="4"/>
<feGaussianBlur stdDeviation="12.5"/>
<feColorMatrix type="matrix" values="0 0 0 0 0 0 0 0 0 0 0 0 0 0 0 0 0 0 0.25 0"/>
<feBlend mode="normal" in2="BackgroundImageFix" result="effect1_dropShadow"/>
<feBlend mode="normal" in="SourceGraphic" in2="effect1_dropShadow" result="shape"/>
</filter>
<filter id="filter4_d" x="523" y="127" width="129.016" height="128.772" filterUnits="userSpaceOnUse" color-interpolation-filters="sRGB">
<feFlood flood-opacity="0" result="BackgroundImageFix"/>
<feColorMatrix in="SourceAlpha" type="matrix" values="0 0 0 0 0 0 0 0 0 0 0 0 0 0 0 0 0 0 127 0"/>
<feOffset dy="4"/>
<feGaussianBlur stdDeviation="12.5"/>
<feColorMatrix type="matrix" values="0 0 0 0 0 0 0 0 0 0 0 0 0 0 0 0 0 0 0.25 0"/>
<feBlend mode="normal" in2="BackgroundImageFix" result="effect1_dropShadow"/>
<feBlend mode="normal" in="SourceGraphic" in2="effect1_dropShadow" result="shape"/>
</filter>
<linearGradient id="paint0_linear" x1="341.307" y1="345.606" x2="370.839" y2="87.4962" gradientUnits="userSpaceOnUse">
<stop stop-color="#79E6FE"/>
<stop offset="1" stop-color="#00E0FF" stop-opacity="0.73"/>
</linearGradient>
<linearGradient id="paint1_linear" x1="101.683" y1="234" x2="101.683" y2="339.041" gradientUnits="userSpaceOnUse">
<stop stop-color="#8F51AE"/>
<stop offset="1" stop-color="#585A8B"/>
</linearGradient>
<linearGradient id="paint2_linear" x1="364.683" y1="119" x2="364.683" y2="224.041" gradientUnits="userSpaceOnUse">
<stop stop-color="#9B63B5"/>
<stop offset="1" stop-color="#585A8B"/>
</linearGradient>
<linearGradient id="paint3_linear" x1="212.436" y1="79" x2="212.436" y2="277.241" gradientUnits="userSpaceOnUse">
<stop stop-color="#9B63B5"/>
<stop offset="1" stop-color="#585A8B"/>
</linearGradient>
<linearGradient id="paint4_linear" x1="475.994" y1="172" x2="475.994" y2="357.402" gradientUnits="userSpaceOnUse">
<stop stop-color="#9B63B5"/>
<stop offset="1" stop-color="#585A8B"/>
</linearGradient>
<linearGradient id="paint5_linear" x1="587.508" y1="148" x2="587.508" y2="226.772" gradientUnits="userSpaceOnUse">
<stop stop-color="#9B63B5"/>
<stop offset="1" stop-color="#585A8B"/>
</linearGradient>
</defs>
</svg>
